<?xml version="1.0" standalone="no"?>
<!DOCTYPE svg PUBLIC "-//W3C//DTD SVG 20010904//EN"
 "http://www.w3.org/TR/2001/REC-SVG-20010904/DTD/svg10.dtd">
<svg version="1.0" xmlns="http://www.w3.org/2000/svg"
 width="225.000000pt" height="225.000000pt" viewBox="0 0 225.000000 225.000000"
 preserveAspectRatio="xMidYMid meet">

<g transform="translate(0.000000,225.000000) scale(0.100000,-0.100000)"
fill="#000000" stroke="none">
<path d="M16 2164 c-23 -22 -20 -51 7 -67 12 -8 55 -20 95 -26 117 -18 175
-58 202 -138 6 -15 51 -257 100 -536 58 -329 97 -521 109 -546 26 -50 91 -107
138 -121 26 -8 214 -10 619 -8 l580 3 41 27 c80 53 88 71 220 506 67 224 123
412 123 419 0 6 -7 19 -16 27 -14 14 -109 16 -894 16 l-878 0 -6 28 c-3 15
-13 68 -22 117 -20 115 -33 143 -86 201 -51 56 -98 79 -204 99 -99 19 -109 19
-128 -1z m2114 -553 c0 -27 -213 -710 -228 -730 -10 -14 -31 -34 -46 -45 -27
-21 -40 -21 -579 -24 l-552 -3 -44 23 c-29 15 -51 35 -62 58 -10 19 -43 179
-73 355 -31 176 -59 332 -62 348 l-6 27 826 0 c455 0 826 -4 826 -9z"/>
<path d="M693 590 c-130 -26 -216 -131 -217 -265 0 -143 125 -265 270 -265 61
0 139 37 187 89 75 80 94 187 52 287 -43 105 -179 176 -292 154z m97 -100 c41
-11 94 -61 109 -103 55 -145 -108 -282 -243 -204 -46 26 -86 93 -86 144 0 89
77 169 165 172 11 1 36 -4 55 -9z"/>
<path d="M1723 589 c-195 -37 -279 -278 -152 -432 101 -123 307 -123 408 0
112 136 60 352 -102 417 -46 19 -105 25 -154 15z m127 -111 c73 -38 107 -108
90 -185 -28 -122 -177 -175 -270 -96 -96 80 -78 233 33 284 55 25 93 24 147
-3z"/>
</g>
</svg>
