<?xml version="1.0" standalone="no"?>
<!DOCTYPE svg PUBLIC "-//W3C//DTD SVG 20010904//EN"
 "http://www.w3.org/TR/2001/REC-SVG-20010904/DTD/svg10.dtd">
<svg version="1.0" xmlns="http://www.w3.org/2000/svg"
 width="225.000000pt" height="225.000000pt" viewBox="0 0 225.000000 225.000000"
 preserveAspectRatio="xMidYMid meet">

<g transform="translate(0.000000,225.000000) scale(0.100000,-0.100000)"
fill="#000000" stroke="none">
<path d="M1027 2059 c-64 -15 -143 -58 -196 -105 -109 -98 -156 -214 -149
-367 3 -81 8 -102 39 -167 115 -241 387 -332 627 -211 278 140 327 533 93 744
-54 47 -136 91 -202 106 -53 13 -160 12 -212 0z m223 -51 c198 -61 326 -262
291 -459 -24 -140 -109 -251 -239 -312 -61 -29 -75 -32 -167 -32 -92 0 -106 3
-167 32 -131 62 -216 173 -240 311 -50 294 237 547 522 460z"/>
<path d="M912 950 c-193 -24 -372 -123 -505 -279 -82 -95 -189 -343 -160 -372
5 -5 364 -8 899 -7 l889 3 -3 34 c-4 54 -47 166 -91 241 -107 180 -295 317
-501 365 -88 21 -410 29 -528 15z m543 -64 c240 -67 426 -241 509 -473 l26
-73 -850 0 c-468 0 -850 2 -850 3 0 2 9 29 19 60 86 248 294 436 546 491 100
22 514 17 600 -8z"/>
</g>
</svg>
