<?xml version="1.0" standalone="no"?>
<!DOCTYPE svg PUBLIC "-//W3C//DTD SVG 20010904//EN"
 "http://www.w3.org/TR/2001/REC-SVG-20010904/DTD/svg10.dtd">
<svg version="1.0" xmlns="http://www.w3.org/2000/svg"
 width="200.000000pt" height="200.000000pt" viewBox="0 0 200.000000 200.000000"
 preserveAspectRatio="xMidYMid meet">

<g transform="translate(0.000000,200.000000) scale(0.100000,-0.100000)"
fill="#000000" stroke="none">
<path d="M112 1738 c-9 -9 -12 -144 -12 -544 0 -293 3 -539 6 -548 6 -14 75
-16 679 -16 l672 0 196 -190 c107 -104 202 -190 210 -190 38 0 38 5 31 752 -4
451 -10 728 -17 736 -14 17 -1747 18 -1765 0z m1703 -500 c3 -238 5 -526 3
-640 l-3 -207 -160 154 -160 154 -657 1 -658 0 0 485 0 485 814 0 814 0 7
-432z"/>
<path d="M338 1449 c-21 -12 -23 -42 -4 -58 9 -8 190 -10 657 -9 l644 3 3 23
c8 54 30 52 -652 52 -410 -1 -637 -4 -648 -11z"/>
<path d="M338 1239 c-21 -12 -23 -42 -4 -58 9 -8 190 -10 657 -9 l644 3 3 24
c8 52 16 51 -657 51 -407 -1 -632 -4 -643 -11z"/>
<path d="M338 1029 c-21 -12 -23 -42 -4 -58 9 -8 190 -10 657 -9 l644 3 3 24
c8 52 16 51 -657 51 -407 -1 -632 -4 -643 -11z"/>
</g>
</svg>
