<?xml version="1.0" standalone="no"?>
<!DOCTYPE svg PUBLIC "-//W3C//DTD SVG 20010904//EN"
 "http://www.w3.org/TR/2001/REC-SVG-20010904/DTD/svg10.dtd">
<svg version="1.0" xmlns="http://www.w3.org/2000/svg"
 width="225.000000pt" height="225.000000pt" viewBox="0 0 225.000000 225.000000"
 preserveAspectRatio="xMidYMid meet">

<g transform="translate(0.000000,225.000000) scale(0.100000,-0.100000)"
fill="#000000" stroke="none">
<path d="M205 2011 c-50 -22 -91 -69 -105 -119 -6 -24 -10 -298 -10 -775 0
-643 2 -742 15 -775 20 -47 50 -79 98 -103 36 -19 66 -19 935 -17 l897 3 33
23 c17 13 44 40 60 59 l27 36 0 681 0 681 -23 38 c-13 20 -45 50 -70 65 l-47
27 -503 5 -504 5 -13 37 c-19 56 -41 85 -87 116 l-41 27 -311 2 c-285 3 -314
1 -351 -16z m642 -126 c14 -10 26 -34 34 -73 7 -37 20 -65 36 -79 l24 -23 492
0 c489 -1 571 -5 588 -31 5 -8 9 -50 9 -94 l0 -80 -905 0 -905 0 0 179 c0 153
2 182 17 198 15 17 38 18 302 18 239 0 290 -2 308 -15z m1165 -522 c17 -15 18
-44 18 -499 l0 -483 -22 -15 c-20 -14 -120 -16 -883 -16 -763 0 -863 2 -883
16 l-22 15 0 481 c0 434 2 483 17 500 15 17 56 18 886 18 796 0 872 -1 889
-17z"/>
</g>
</svg>
