<?xml version="1.0" standalone="no"?>
<!DOCTYPE svg PUBLIC "-//W3C//DTD SVG 20010904//EN"
 "http://www.w3.org/TR/2001/REC-SVG-20010904/DTD/svg10.dtd">
<svg version="1.0" xmlns="http://www.w3.org/2000/svg"
 width="200.000000pt" height="200.000000pt" viewBox="0 0 200.000000 200.000000"
 preserveAspectRatio="xMidYMid meet">

<g transform="translate(0.000000,200.000000) scale(0.100000,-0.100000)"
fill="#000000" stroke="none">
<path d="M600 1685 c-201 -90 -375 -171 -388 -180 l-22 -16 0 -488 c0 -452 1
-489 18 -503 9 -8 191 -92 404 -187 l388 -171 388 171 c213 95 395 179 405
187 16 14 17 51 17 502 0 451 -1 488 -17 502 -30 25 -774 348 -802 347 -14 0
-190 -74 -391 -164z m691 -92 c159 -71 289 -131 289 -134 0 -6 -570 -259 -584
-259 -16 0 -576 253 -576 260 0 6 558 259 573 260 5 0 139 -57 298 -127z
m-652 -379 l296 -132 3 -386 c1 -212 -1 -386 -5 -386 -5 0 -146 61 -315 137
l-308 136 0 388 c0 361 1 388 17 382 9 -4 150 -66 312 -139z m1051 -242 l0
-389 -307 -136 c-170 -76 -311 -137 -316 -137 -4 0 -6 174 -5 387 l3 388 310
137 c171 76 311 138 313 138 1 0 2 -175 2 -388z"/>
</g>
</svg>
