<?xml version="1.0" standalone="no"?>
<!DOCTYPE svg PUBLIC "-//W3C//DTD SVG 20010904//EN"
 "http://www.w3.org/TR/2001/REC-SVG-20010904/DTD/svg10.dtd">
<svg version="1.0" xmlns="http://www.w3.org/2000/svg"
 width="225.000000pt" height="225.000000pt" viewBox="0 0 225.000000 225.000000"
 preserveAspectRatio="xMidYMid meet">

<g transform="translate(0.000000,225.000000) scale(0.100000,-0.100000)"
fill="#000000" stroke="none">
<path d="M1198 2143 c-17 -18 -18 -55 -18 -475 0 -428 1 -456 18 -471 17 -15
64 -17 474 -17 537 0 495 -10 485 119 -36 461 -399 824 -857 857 -76 6 -87 4
-102 -13z m227 -112 c241 -59 441 -222 550 -452 36 -77 75 -211 75 -261 l0
-28 -380 0 -380 0 0 380 0 380 28 0 c15 0 63 -9 107 -19z"/>
<path d="M820 1921 c-336 -71 -611 -334 -700 -667 -27 -100 -36 -274 -21 -373
62 -395 368 -708 758 -776 539 -94 1045 300 1080 840 5 77 3 93 -11 108 -16
15 -55 17 -437 17 l-419 0 0 419 c0 368 -2 421 -16 435 -21 22 -124 20 -234
-3z m140 -506 c0 -402 1 -416 20 -435 19 -19 33 -20 435 -20 l415 0 0 -28 c0
-16 -9 -64 -20 -108 -74 -288 -281 -505 -570 -596 -65 -20 -95 -23 -230 -23
-148 1 -159 2 -249 33 -138 48 -222 101 -326 206 -181 183 -257 398 -234 659
30 328 284 621 614 707 39 11 87 19 108 19 l37 1 0 -415z"/>
</g>
</svg>
