<?xml version="1.0" standalone="no"?>
<!DOCTYPE svg PUBLIC "-//W3C//DTD SVG 20010904//EN"
 "http://www.w3.org/TR/2001/REC-SVG-20010904/DTD/svg10.dtd">
<svg version="1.0" xmlns="http://www.w3.org/2000/svg"
 width="225.000000pt" height="225.000000pt" viewBox="0 0 225.000000 225.000000"
 preserveAspectRatio="xMidYMid meet">

<g transform="translate(0.000000,225.000000) scale(0.100000,-0.100000)"
fill="#000000" stroke="none">
<path d="M367 1856 c-46 -17 -64 -32 -83 -67 -12 -23 -14 -118 -14 -566 0
-509 1 -540 19 -569 38 -62 51 -64 440 -64 l351 0 0 -125 0 -125 -199 0 c-168
0 -202 -2 -215 -16 -19 -19 -20 -26 -4 -42 17 -17 909 -17 926 0 16 16 15 23
-4 42 -13 14 -48 16 -225 16 l-209 0 0 125 0 125 361 0 c400 0 412 2 450 64
18 29 19 60 19 571 0 518 -1 541 -20 572 -10 18 -34 40 -52 50 -31 17 -82 18
-768 20 -597 2 -742 0 -773 -11z m1506 -67 c12 -7 25 -17 29 -23 4 -6 8 -250
8 -543 l0 -532 -26 -20 c-26 -21 -33 -21 -759 -21 -726 0 -733 0 -759 21 l-26
21 2 541 3 541 25 13 c34 18 1470 19 1503 2z"/>
<path d="M724 1348 c-66 -64 -104 -109 -104 -123 0 -29 201 -228 226 -223 42
8 27 40 -62 129 l-89 89 88 88 c86 87 105 123 71 136 -9 3 -18 6 -21 6 -3 0
-52 -46 -109 -102z"/>
<path d="M1416 1434 c-9 -8 -16 -19 -16 -22 0 -4 40 -48 90 -97 l90 -89 -91
-93 c-64 -64 -89 -97 -85 -109 3 -8 6 -18 6 -20 0 -2 10 -4 23 -4 26 0 227
195 227 221 0 14 -209 229 -223 229 -3 0 -13 -7 -21 -16z"/>
<path d="M1152 1318 c-124 -235 -144 -279 -131 -294 30 -37 46 -17 145 178 73
145 94 196 87 207 -24 38 -41 22 -101 -91z"/>
</g>
</svg>
